<?xml version="1.0" encoding="UTF-8"?>
<svg width="70px" height="70px" viewBox="0 0 70 70" version="1.1" xmlns="http://www.w3.org/2000/svg" xmlns:xlink="http://www.w3.org/1999/xlink">
    <!-- Generator: Sketch 52.4 (67378) - http://www.bohemiancoding.com/sketch -->
    <title>Pocket Casts Roundel - Red</title>
    <desc>Created with Sketch.</desc>
    <g id="Web-Player" stroke="none" stroke-width="1" fill="none" fill-rule="evenodd">
        <g id="Pocket-Casts-Roundel---Red">
            <g id="Group">
                <path d="M70,35 C70,54.3303704 54.3303704,70 35,70 C15.6696296,70 0,54.3303704 0,35 C0,15.6696296 15.6696296,0 35,0 C54.3303704,0 70,15.6696296 70,35" id="Fill-23" fill="#F43E37"/>
                <g id="Glyph" transform="translate(7.777778, 7.777778)" fill="#FFFFFF">
                    <path d="M0,27 C0,12.0883118 12.0883118,0 27,0 C41.9116882,0 54,12.0883118 54,27 L47.25,27 C47.25,15.8162338 38.1837662,6.75 27,6.75 C15.8162338,6.75 6.75,15.8162338 6.75,27 C6.75,38.1837662 15.8162338,47.25 27,47.25 L27,54 C12.0883118,54 0,41.9116882 0,27 Z M27,43.2 C18.0529871,43.2 10.8,35.9470129 10.8,27 C10.8,18.0529871 18.0529871,10.8 27,10.8 C35.9470129,10.8 43.2,18.0529871 43.2,27 L37.3090909,27 C37.3090909,21.3064463 32.6935537,16.6909091 27,16.6909091 C21.3064463,16.6909091 16.6909091,21.3064463 16.6909091,27 C16.6909091,32.6935537 21.3064463,37.3090909 27,37.3090909 L27,43.2 Z" id="Path"/>
                </g>
            </g>
        </g>
    </g>
</svg>