<!-- https://www.pocketcasts.com/images/logo-horizontal.svg -->
<svg width="217px" height="44px" viewBox="0 0 217 44" version="1.1" xmlns="http://www.w3.org/2000/svg" xmlns:xlink="http://www.w3.org/1999/xlink">
    <!-- Generator: Sketch 52.3 (67297) - http://www.bohemiancoding.com/sketch -->
    <title>logo-horizontal</title>
    <desc>Created with Sketch.</desc>
    <g id="Launch-Microsite" stroke="none" stroke-width="1" fill="none" fill-rule="evenodd">
        <g id="Desktop-HD" transform="translate(-135.000000, -39.000000)">
            <g id="lockups/Red-Roundel-+-Black-Text-(horizontal)" transform="translate(135.000000, 39.000000)">
                <g id="Group">
                    <g id="Pocket-Casts-Roundel---Red">
                        <g id="Group">
                            <path d="M43.2,21.6 C43.2,33.5296 33.5296,43.2 21.6,43.2 C9.6704,43.2 0,33.5296 0,21.6 C0,9.6704 9.6704,0 21.6,0 C33.5296,0 43.2,9.6704 43.2,21.6" id="Fill-23" fill="#F43E37"></path>
                            <g id="Glyph" transform="translate(4.800000, 4.800000)" fill="#FFFFFF">
                                <path d="M0,17 C0,7.61115925 7.61115925,0 17,0 C26.3888407,0 34,7.61115925 34,17 L29.75,17 C29.75,9.95836944 24.0416306,4.25 17,4.25 C9.95836944,4.25 4.25,9.95836944 4.25,17 C4.25,24.0416306 9.95836944,29.75 17,29.75 L17,34 C7.61115925,34 0,26.3888407 0,17 Z M17,27.2 C11.3666956,27.2 6.8,22.6333044 6.8,17 C6.8,11.3666956 11.3666956,6.8 17,6.8 C22.6333044,6.8 27.2,11.3666956 27.2,17 L23.4909091,17 C23.4909091,13.4151699 20.5848301,10.5090909 17,10.5090909 C13.4151699,10.5090909 10.5090909,13.4151699 10.5090909,17 C10.5090909,20.5848301 13.4151699,23.4909091 17,23.4909091 L17,27.2 Z" id="Path"></path>
                            </g>
                        </g>
                    </g>
                    <g id="Group-29" transform="translate(56.800000, 8.800000)" fill="#000000">
                        <path d="M6.59216,13.84256 C9.07856,13.84256 10.32176,12.49856 10.32176,9.64176 C10.32176,6.71776 9.07856,5.60896 6.65936,5.60896 L5.44896,5.60896 L5.44896,13.84256 L6.59216,13.84256 Z M0.27456,24.83136 L0.27456,1.30736 L6.65936,1.30736 C12.40576,1.30736 15.49776,4.02976 15.49776,9.47376 C15.49776,15.55616 11.83456,18.07696 6.79376,18.07696 L5.48256,18.07696 L5.48256,24.83136 L0.27456,24.83136 Z" id="Fill-1"></path>
                        <path d="M23.08984,11.18752 C21.57704,11.18752 20.63704,12.80112 20.63704,16.09392 C20.63704,19.42112 21.61064,21.06752 23.15704,21.06752 C24.66904,21.06752 25.64344,19.42112 25.64344,16.12752 C25.64344,12.80112 24.63544,11.18752 23.08984,11.18752 M23.12344,25.16752 C19.15784,25.16752 15.99864,22.10912 15.99864,16.16112 C15.99864,10.14592 19.19144,7.05392 23.15704,7.05392 C27.08904,7.05392 30.28104,10.14592 30.28104,16.09392 C30.28104,22.07552 27.08904,25.16752 23.12344,25.16752" id="Fill-3"></path>
                        <path d="M38.84768,25.1004 C34.17648,25.1004 31.42048,21.8404 31.42048,16.1612 C31.42048,10.6164 34.24368,7.1212 39.11648,7.1212 C40.66288,7.1212 41.83808,7.4236 42.98128,7.8604 L42.24128,12.0948 C41.43488,11.7252 40.49488,11.4228 39.51968,11.4228 C37.26768,11.4228 36.09248,13.3716 36.09248,16.094 C36.09248,19.0516 37.26768,20.7988 39.58688,20.7988 C40.46128,20.7988 41.36768,20.53 42.34208,20.1604 L43.08208,24.2268 C41.90528,24.7308 40.36048,25.1004 38.84768,25.1004" id="Fill-5"></path>
                        <polygon id="Fill-7" points="49.6992 16.49728 49.6992 24.83168 44.8264 24.83168 44.8264 0.60128 49.6992 0.60128 49.6992 14.95168 53.6648 7.42368 59.008 7.42368 54.2696 15.75808 59.1424 24.83168 53.732 24.83168"></polygon>
                        <path d="M67.77656,14.9516 C67.67576,12.33 66.90216,10.7844 65.42456,10.7844 C63.91176,10.7844 63.13896,12.3972 63.03736,14.9516 L67.77656,14.9516 Z M58.50056,16.1948 C58.50056,10.2132 61.55976,7.054 65.42456,7.054 C69.52376,7.054 72.27976,10.1796 72.27976,16.2956 L72.27976,17.8756 L63.03736,17.8756 C63.20616,20.2612 64.51656,21.4372 66.66696,21.4372 C67.94456,21.4372 69.45656,21.034 70.83416,20.3956 L71.70856,23.8236 C70.02776,24.6636 68.04536,25.1004 66.16296,25.1004 C61.89496,25.1004 58.50056,22.8492 58.50056,16.1948 Z" id="Fill-9"></path>
                        <path d="M74.89768,19.62264 L74.89768,11.42264 L73.01528,11.42264 L73.01528,7.42344 L74.89768,7.42344 L74.89768,2.85384 L79.73688,2.85384 L79.73688,7.42344 L83.43368,7.42344 L83.43368,11.42264 L79.73688,11.42264 L79.73688,18.91704 C79.73688,20.36184 80.51048,20.96664 81.82008,20.96664 C82.39208,20.96664 82.89608,20.86584 83.43368,20.73144 L83.43368,24.69704 C82.69448,24.93224 81.65208,25.06664 80.44328,25.06664 C76.74648,25.06664 74.89768,23.55464 74.89768,19.62264" id="Fill-11"></path>
                        <path d="M99.79608,25.1004 C93.67928,25.1004 89.84808,21.202 89.84808,13.1028 C89.84808,5.3068 93.78008,1.0388 99.82968,1.0388 C101.84648,1.0388 103.52648,1.442 104.83688,1.946 L104.03048,6.718 C102.98888,6.2812 101.77928,5.878 100.33368,5.878 C97.10808,5.878 95.19208,8.4324 95.19208,13.0356 C95.19208,17.774 97.00728,20.2612 100.43448,20.2612 C101.74568,20.2612 102.98888,19.9252 104.06408,19.4548 L104.90408,24.0924 C103.45928,24.6972 101.67848,25.1004 99.79608,25.1004" id="Fill-13"></path>
                        <path d="M114.51248,21.1352 L114.51248,17.0016 C114.04208,16.9008 113.50448,16.8672 112.93328,16.8672 C111.92528,16.8672 111.35408,17.0688 110.95088,17.4384 C110.58128,17.8416 110.37888,18.4464 110.37888,19.32 C110.37888,21.068 111.15248,21.7736 112.49568,21.7736 C113.16848,21.7736 113.87408,21.5048 114.51248,21.1352 M110.47968,25.0672 C107.75808,25.0672 105.84208,23.3192 105.84208,19.5552 C105.84208,17.8752 106.31328,16.464 107.22048,15.5896 C108.19488,14.5816 109.63968,14.0776 111.82448,14.0776 C112.76528,14.0776 113.70608,14.212 114.51248,14.38 L114.51248,13.4056 C114.51248,11.9272 113.84048,11.12 112.02608,11.12 C110.61488,11.12 109.10208,11.524 107.75808,12.0952 L106.85088,8.3984 C108.59808,7.6928 110.64848,7.1552 112.89968,7.1552 C117.30208,7.1552 119.28528,9.0368 119.28528,13.036 L119.28528,21.74 L119.65488,24.832 L115.42048,24.832 L114.81568,23.3192 C113.53808,24.4288 112.29488,25.0672 110.47968,25.0672" id="Fill-15"></path>
                        <path d="M127.38048,25.134 C125.02848,25.134 122.84368,24.5292 120.96208,23.5212 L121.93648,19.5892 C123.78528,20.5972 125.63248,21.202 127.31328,21.202 C128.55728,21.202 129.22928,20.6644 129.22928,19.9252 C129.22928,19.186 128.82608,18.85 126.47328,17.9092 C123.21328,16.598 121.60048,15.3548 121.60048,12.4308 C121.60048,9.2044 123.81888,7.1212 127.71648,7.1212 C129.69888,7.1212 131.51408,7.5916 133.16128,8.3988 L132.18608,12.33 C130.67408,11.5572 129.12848,11.0532 127.71648,11.0532 C126.67488,11.0532 126.10368,11.49 126.10368,12.1956 C126.10368,12.8676 126.47328,13.2036 128.79248,14.1452 C132.45568,15.59 133.73168,16.934 133.73168,19.69 C133.73168,23.3196 131.17808,25.134 127.38048,25.134" id="Fill-17"></path>
                        <path d="M136.51872,19.62264 L136.51872,11.42264 L134.63632,11.42264 L134.63632,7.42344 L136.51872,7.42344 L136.51872,2.85384 L141.35792,2.85384 L141.35792,7.42344 L145.05472,7.42344 L145.05472,11.42264 L141.35792,11.42264 L141.35792,18.91704 C141.35792,20.36184 142.13152,20.96664 143.44112,20.96664 C144.01312,20.96664 144.51712,20.86584 145.05472,20.73144 L145.05472,24.69704 C144.31552,24.93224 143.27312,25.06664 142.06432,25.06664 C138.36752,25.06664 136.51872,23.55464 136.51872,19.62264" id="Fill-19"></path>
                        <path d="M152.9492,25.134 C150.5972,25.134 148.4124,24.5292 146.5308,23.5212 L147.5052,19.5892 C149.354,20.5972 151.2012,21.202 152.882,21.202 C154.126,21.202 154.798,20.6644 154.798,19.9252 C154.798,19.186 154.3948,18.85 152.042,17.9092 C148.782,16.598 147.1692,15.3548 147.1692,12.4308 C147.1692,9.2044 149.3876,7.1212 153.2852,7.1212 C155.2676,7.1212 157.0828,7.5916 158.73,8.3988 L157.7548,12.33 C156.2428,11.5572 154.6972,11.0532 153.2852,11.0532 C152.2436,11.0532 151.6724,11.49 151.6724,12.1956 C151.6724,12.8676 152.042,13.2036 154.3612,14.1452 C158.0244,15.59 159.3004,16.934 159.3004,19.69 C159.3004,23.3196 156.7468,25.134 152.9492,25.134" id="Fill-21"></path>
                    </g>
                </g>
            </g>
        </g>
    </g>
</svg>
